<svg xmlns="http://www.w3.org/2000/svg" width="256px" height="256px" version="1.0" viewBox="0 0 256 256">
	<path d="M106 .5 97 2c-49.8 8.1-85.6 52-79.1 96.9A84.7 84.7 0 0 0 35.4 139a118 118 0 0 1 16.7 33c2.1 7 2.3 10.1 2.8 44.3.6 35 .7 36.9 2.5 38.3 2.9 2.1 108.3 2.1 111.2 0 1.8-1.3 1.9-3.2 2.4-26.8l.5-25.3 20.2-.5c19.8-.5 20.2-.5 22.9-3 4.8-4.5 5.4-7.4 5.4-26.5V155h5.5c3.1 0 6.9-.7 8.4-1.5 3.2-1.6 5.6-6.4 4.9-9.8-.3-1.3-5.3-10.5-11.2-20.4l-10.6-18-.4-16.9c-.2-14.4-.6-17.8-2.5-23.4-13.5-38.7-49-63.3-93.1-64.5-7.4-.2-14.2-.2-15 0zm32.5 13.4a90.5 90.5 0 0 1 51.8 30.9 72.2 72.2 0 0 1 12.4 22.7c2.6 7.5 2.7 9.1 2.8 24.5v16.6l10.1 17.1c5.6 9.5 9.9 17.4 9.6 17.7-.3.4-2.4.6-4.7.6-4.5 0-8.5 2.4-10.8 6.3-.8 1.5-1.4 8.7-1.7 21.2l-.5 19-19.7.5c-17.9.5-19.9.7-22.5 2.6-5.7 4.2-6.3 6.8-6.3 29.6V244H67.4c-.3 0-.5-10-.4-22.3.1-27.3-1.2-42.7-4.5-54.2a124.9 124.9 0 0 0-17.3-34.4c-13.1-18.1-16.6-28.7-16-47.5.3-9.9.9-13.5 3-19.4C41.6 40.1 66 20.3 97.1 13.5a134 134 0 0 1 41.4.4z"/>
	<path d="M79.3 45.2 67 57.4v45.2c0 39.8.2 45.4 1.6 46.8s7.3 1.6 49.8 1.6c45.5 0 48.4-.1 49.9-1.8s1.7-7.1 1.7-57.5V36.1l-2.2-1.5c-1.9-1.4-7.4-1.6-39.2-1.6H91.7L79.3 45.2zM98 52.5c0 8.1 1.8 11.5 6 11.5s6-3.4 6-11.5V45h8v7.5c0 8.1 1.8 11.5 6 11.5s6-3.4 6-11.5V45h8v7.5c0 8.1 1.8 11.5 6 11.5s6-3.4 6-11.5V45h9l-.2 47.2-.3 47.3-5.7.3-5.8.3V120c0-19.6-.5-23.3-3.4-25.2-.6-.4-10.4-.8-21.7-.8-18.2 0-20.9.2-22.8 1.7-2 1.7-2.1 2.8-2.3 22.8l-.3 21-9.2.3-9.3.3V62.5l8.7-8.7c4.8-4.9 9.3-8.8 10-8.8.9 0 1.3 2.1 1.3 7.5zm37 70.5v17h-27v-34h27v17z"/>
</svg>
