<svg id="Layer_1" data-name="Layer 1" xmlns="http://www.w3.org/2000/svg" xmlns:xlink="http://www.w3.org/1999/xlink" viewBox="0 0 1080 1080"><defs><style>.cls-1{fill:none;}.cls-2{fill:#0e9347;}.cls-3{fill:#49321d;}.cls-4{fill:#961b20;}.cls-5{clip-path:url(#clip-path);}.cls-6{fill:#d32027;}</style><clipPath id="clip-path"><path class="cls-1" d="M847.47,641.79c-18.29,159.59-180.35,291.15-277,214.89-101.62,72.45-256.06-64.83-277-214.89C272.23,490.26,360.14,360.94,554.3,422,781.52,326.62,864.88,489.78,847.47,641.79Z"/></clipPath></defs><title>Apple</title><path class="cls-2" d="M579.11,393.45l-20.33.14v-1.41A177.64,177.64,0,0,1,735.14,213.27l20.32-.14v1.41A177.64,177.64,0,0,1,579.11,393.45Z"/><path class="cls-3" d="M579.11,393.45l-.06-8.58-20.33.14.06,8.58,8.58-.06v-1.42c0-.43,0-.84,0-1.23a169.06,169.06,0,0,1,167.86-169l20.32-.15-.06-8.57-8.58.05v1.42c0,.41,0,.82,0,1.24A169.08,169.08,0,0,1,579,384.87l.07,8.58.06,8.58A186.23,186.23,0,0,0,764.06,215.84c0-.45,0-.9,0-1.35v-1.42l-.06-8.59-28.91.21A186.22,186.22,0,0,0,550.18,390.88c0,.47,0,.92,0,1.37v1.41l.06,8.57,28.91-.2Z"/><path class="cls-4" d="M847.47,641.79c-18.29,159.59-180.35,291.15-277,214.89-101.62,72.45-256.06-64.83-277-214.89C272.23,490.26,360.14,360.94,554.3,422,781.52,326.62,864.88,489.78,847.47,641.79Z"/><g class="cls-5"><path class="cls-6" d="M892.84,657.39c-18.28,159.6-180.35,291.16-277,214.89-101.62,72.45-256.06-64.83-277-214.89-21.18-151.53,66.73-280.84,260.89-219.83C826.89,342.23,910.26,505.38,892.84,657.39Z"/></g><path class="cls-3" d="M847.47,641.79l-8.53-1c-7,61.68-36.49,119.49-75.22,161.56-19.34,21-41,38.13-63.05,49.87s-44.58,18.12-65.73,18.12a93.47,93.47,0,0,1-59.19-20.42l-5-4-5.24,3.74A96.59,96.59,0,0,1,508.21,868c-21.53,0-44.2-6.57-66.4-18.56-33.29-18-65.34-48.06-90.45-84.79s-43.3-80-49.45-124.08a304.74,304.74,0,0,1-3-42.21c0-51.58,14.08-97.54,41.28-130.28A140.32,140.32,0,0,1,391,429.38c20.34-9.15,44.2-14.29,71.79-14.29,26.26,0,55.91,4.68,88.92,15.05l3,.94,2.89-1.21c46.16-19.37,85.88-27.7,119.51-27.7,28.83,0,53.19,6.08,73.73,16.63a140.18,140.18,0,0,1,40,30.95c17,18.8,29.56,42.3,37.89,68.55s12.37,55.22,12.37,84.71a332.92,332.92,0,0,1-2.17,37.8l8.53,1,8.52,1A350.67,350.67,0,0,0,858.27,603,304.39,304.39,0,0,0,847.9,522.6C837.37,484.35,818.55,450,790.19,425a155.32,155.32,0,0,0-49.58-29.39c-18.87-6.89-40-10.62-63.48-10.62-36.47,0-78.38,9-126.15,29L554.3,422l2.58-8.19c-34.41-10.81-65.77-15.84-94.07-15.84-29.72,0-56.09,5.57-78.83,15.8-34.14,15.34-59.92,41.18-76.89,73.27s-25.34,70.41-25.35,111.39A322.44,322.44,0,0,0,284.91,643c8.82,62.84,40,122.89,81,167.63,20.53,22.37,43.57,40.92,67.73,54s49.51,20.61,74.55,20.62a113.93,113.93,0,0,0,67.21-21.53l-5-7-5.32,6.73a110.73,110.73,0,0,0,69.82,24.11c24.61,0,49.73-7.34,73.79-20.13,36.08-19.21,69.91-50.73,96.31-89.72s45.28-85.53,51-134.91Z"/><path class="cls-3" d="M346.78,650.68a254.66,254.66,0,0,1-2.5-35.17c0-37.3,8.85-71,25.94-97A119.19,119.19,0,0,1,402,485.67a122.9,122.9,0,0,1,44.58-18.92A8.58,8.58,0,0,0,443,450a140.08,140.08,0,0,0-50.73,21.59c-21.88,15.12-38.25,36.23-49,60.94s-16.12,53-16.12,83a271.21,271.21,0,0,0,2.67,37.55,8.58,8.58,0,1,0,17-2.38Z"/><path class="cls-3" d="M422.41,794.58a254.11,254.11,0,0,1-41.05-50.72,8.58,8.58,0,1,0-14.59,9,270.79,270.79,0,0,0,43.85,54.17,8.58,8.58,0,0,0,11.8-12.47Z"/><path class="cls-3" d="M568.91,483.44c0-.13.3-5.61.3-14.91A490.51,490.51,0,0,0,562,385c-6.19-34.67-17.4-72.8-38.38-104.13a8.58,8.58,0,0,0-14.25,9.56c19,28.25,29.84,64.31,35.73,97.57a473,473,0,0,1,6.95,80.55c0,4.46-.07,8-.14,10.39,0,1.19-.07,2.11-.09,2.71,0,.31,0,.53,0,.68v.19a8.58,8.58,0,1,0,17.13.94Z"/><path class="cls-3" d="M515.52,482.68a74,74,0,0,0,12.75,8.76c7.73,4.24,18.61,8.67,31.4,8.69a51.93,51.93,0,0,0,20.05-4,62.37,62.37,0,0,0,20.06-13.77,8.58,8.58,0,0,0-12.13-12.14,45,45,0,0,1-14.52,10.06A34.64,34.64,0,0,1,559.67,483c-8.67,0-17-3.17-23.11-6.56a64.31,64.31,0,0,1-7.2-4.61c-.84-.63-1.47-1.13-1.87-1.46l-.43-.36-.08-.07h0l-3.55,4,3.57-4,0,0-3.55,4,3.57-4a8.58,8.58,0,0,0-11.48,12.76Z"/></svg>