<svg id="Layer_1" data-name="Layer 1" xmlns="http://www.w3.org/2000/svg" xmlns:xlink="http://www.w3.org/1999/xlink" viewBox="0 0 1080 1080"><defs><style>.cls-1{fill:none;}.cls-2{fill:#f16d57;}.cls-3{clip-path:url(#clip-path);}.cls-4{fill:#f5934d;}.cls-5{fill:#49321d;}.cls-6{fill:#fff;}.cls-7{clip-path:url(#clip-path-2);}.cls-8{fill:#ffe19a;}.cls-9{fill:#fbb75a;}.cls-10{fill:#d78c31;}</style><clipPath id="clip-path"><path class="cls-1" d="M693.12,455.74c4,109-76.43,208.28-183.12,185.74-118.94,30.94-207.56-62.05-211.62-171S374.64,252,497.25,298.85C636.8,235.18,689.06,346.74,693.12,455.74Z"/></clipPath><clipPath id="clip-path-2"><path class="cls-1" d="M671.87,408.62c-104.94,29.77-174.55,137-120.19,231.5,7.27,122.67,123.06,178.28,228,148.51S964,648.7,881.53,546.54C899.05,394.15,776.81,378.85,671.87,408.62Z"/></clipPath></defs><title>Peach</title><path class="cls-2" d="M693.12,455.74c4,109-76.43,208.28-183.12,185.74-118.94,30.94-207.56-62.05-211.62-171S374.64,252,497.25,298.85C636.8,235.18,689.06,346.74,693.12,455.74Z"/><g class="cls-3"><path class="cls-4" d="M765.36,476.22c4,109-76.43,208.28-183.13,185.74-118.93,30.94-207.55-62.05-211.61-171s76.25-218.47,198.86-171.57C709,255.66,761.3,367.22,765.36,476.22Z"/></g><path class="cls-5" d="M693.12,455.74l-8.58.32c.1,2.53.14,5.05.14,7.57,0,45.75-15.46,89.2-41.29,120.87a144.77,144.77,0,0,1-45.72,37.69,124.56,124.56,0,0,1-57.47,13.93,136.87,136.87,0,0,1-28.43-3l-2-.41-2,.51a172.27,172.27,0,0,1-43.39,5.74,145.73,145.73,0,0,1-62.07-13.57c-28-13-51.17-34.75-67.74-61.82S308.22,504.12,307,470.11c-.1-2.53-.14-5.06-.14-7.59,0-42.49,13.29-84.52,36.7-115.42,11.7-15.47,25.87-28.16,42.13-37a114.23,114.23,0,0,1,55.08-13.83c16.45,0,34.29,3.26,53.45,10.59l3.36,1.28,3.27-1.49c27.42-12.51,50.91-17.83,70.79-17.83,19.6,0,35.75,5.07,49.51,13.84a101.44,101.44,0,0,1,27,25.94c11.58,15.84,20.31,35.72,26.29,57.66s9.27,45.9,10.15,69.79l8.58-.32,8.57-.32A335.83,335.83,0,0,0,693,389.63c-7.67-31.74-20.52-60.9-40.37-82.58a106.15,106.15,0,0,0-81-35.38c-23,0-48.82,6.11-77.92,19.38l3.57,7.8,3.06-8c-20.89-8-40.85-11.72-59.58-11.72A131.36,131.36,0,0,0,377.47,295c-28,15.21-49.93,40-64.86,69.4S289.66,428,289.66,462.52q0,4.11.15,8.23C291.65,520,310,566.1,340.59,600.16a170,170,0,0,0,54.54,40.75,163,163,0,0,0,69.32,15.17,189,189,0,0,0,47.71-6.3l-2.16-8.3-1.78,8.39a154,154,0,0,0,32,3.41,141.76,141.76,0,0,0,65.32-15.83c29.5-15.19,53.56-40.16,70.26-70.49s26.06-66.13,26.06-103.33c0-2.73-.05-5.46-.15-8.21Z"/><path class="cls-5" d="M355.17,423.53c8.16-20.9,20.34-39.32,35.67-53s33.75-22.73,55-25.24a8.58,8.58,0,0,0-2-17c-25,2.92-46.8,13.71-64.43,29.49s-31.2,36.47-40.23,59.55a8.58,8.58,0,0,0,16,6.25Z"/><path class="cls-6" d="M498,300.26s34.18,6.91,39.08,44.16"/><path class="cls-5" d="M496.28,308.67l1.07-5.3-1.11,5.29h0l1.07-5.3-1.11,5.29h.05a45.36,45.36,0,0,1,15.56,7.51,41,41,0,0,1,10.32,11,44.55,44.55,0,0,1,6.38,18.32,8.58,8.58,0,1,0,17-2.24A61.42,61.42,0,0,0,536,317.07a60.16,60.16,0,0,0-23.1-20.31,56,56,0,0,0-13.25-4.91,8.58,8.58,0,1,0-3.41,16.82Z"/><path class="cls-6" d="M510,641.48s66.28-41.85,66.39-133.08"/><path class="cls-5" d="M514.58,648.73c.58-.38,17.94-11.39,35.41-34.39a170.85,170.85,0,0,0,24-43.67,177.77,177.77,0,0,0,11-62.26,8.58,8.58,0,1,0-17.16,0,161,161,0,0,1-9.88,56.3,154.28,154.28,0,0,1-33.15,52.8,139.59,139.59,0,0,1-14,12.79c-1.76,1.39-3.16,2.41-4.1,3.07-.46.33-.81.56-1,.71l-.23.15,0,0,1.66,2.59-1.64-2.6h0l1.66,2.59-1.64-2.6a8.58,8.58,0,1,0,9.16,14.51Z"/><path class="cls-6" d="M575.83,484.36s3.34-24.64-7.84-47.82"/><path class="cls-5" d="M584.33,485.51a82.13,82.13,0,0,0,.54-10.13c0-10.05-1.35-26.31-9.15-42.57a8.58,8.58,0,1,0-15.46,7.46c6.19,12.76,7.47,26.65,7.45,35.11,0,2.52-.1,4.56-.21,5.92,0,.68-.1,1.2-.13,1.52l0,.35v.06l2.62.33-2.62-.35v0l2.62.33-2.62-.35a8.58,8.58,0,0,0,17,2.3Z"/><path class="cls-2" d="M671.87,408.62c-104.94,29.77-174.55,137-120.19,231.5,7.27,122.67,123.06,178.28,228,148.51S964,648.7,881.53,546.54C899.05,394.15,776.81,378.85,671.87,408.62Z"/><g class="cls-7"><path class="cls-4" d="M676.35,452C571.42,481.75,501.81,588.93,556.17,683.47c7.26,122.68,123.06,178.29,228,148.52S968.46,692.05,886,589.89C903.53,437.51,781.29,422.21,676.35,452Z"/></g><path class="cls-5" d="M671.87,408.62l-2.34-8.25c-41.5,11.78-77.68,35.14-103.64,65.2s-41.72,66.94-41.73,105.59c0,24.36,6.33,49.32,20.09,73.23l7.43-4.27-8.56.5c1.55,26.29,7.92,49.85,18.08,70.31a163.51,163.51,0,0,0,67.28,70.18c28.3,15.86,61.13,24,94.89,24A215.42,215.42,0,0,0,782,796.89c38.74-11,74.05-32.44,99.94-60.57a168.41,168.41,0,0,0,30.88-46.83,136,136,0,0,0,11.49-54.14,133.78,133.78,0,0,0-8.68-47.11c-5.91-15.82-15-31.62-27.44-47.09l-6.68,5.39,8.52,1a252.72,252.72,0,0,0,1.74-29c0-23.66-3.83-43.85-10.95-60.82A106.5,106.5,0,0,0,859.64,425c-13-13.59-29.2-23-47.09-29s-37.53-8.51-57.83-8.51c-27.93,0-57.19,4.85-85.19,12.79l2.34,8.25,2.34,8.26c26.73-7.59,54.57-12.15,80.51-12.14,16.76,0,32.72,1.9,47.1,6a109.23,109.23,0,0,1,29.43,13,86.51,86.51,0,0,1,31.36,35.3c7.56,15.39,12,34.9,12,59.46a236.18,236.18,0,0,1-1.64,27l-.41,3.57,2.26,2.8c11.45,14.18,19.51,28.36,24.73,42.32a116.81,116.81,0,0,1,7.59,41.1,118.55,118.55,0,0,1-10.08,47.32c-9.76,22.57-26.22,43.22-47,60.11a204.91,204.91,0,0,1-72.72,37.6,198.2,198.2,0,0,1-54,7.56c-41.36,0-80.81-13.31-110.45-38.35a144.26,144.26,0,0,1-36.35-46.3c-9.1-18.32-14.89-39.53-16.32-63.68l-.12-2-1-1.75c-12.31-21.44-17.79-43.27-17.8-64.68,0-33.89,13.88-66.94,37.56-94.38s57.06-49,95.33-59.9Z"/><path class="cls-5" d="M817.65,733.43c16.24-13.32,29.85-29.19,39.45-46.91s15.17-37.31,15.17-57.78a114.52,114.52,0,0,0-2.21-22.33,8.58,8.58,0,1,0-16.83,3.35,97.3,97.3,0,0,1,1.88,19c0,17.35-4.69,34.09-13.09,49.61s-20.54,29.75-35.25,41.8a8.58,8.58,0,1,0,10.88,13.28Z"/><path class="cls-6" d="M880,546.27s-17.12-30.38-54.07-23.54"/><path class="cls-5" d="M887.44,542.06a59.24,59.24,0,0,0-12.51-14.58,60.6,60.6,0,0,0-15.8-9.83,57.79,57.79,0,0,0-22.62-4.5,67.2,67.2,0,0,0-12.17,1.14,8.58,8.58,0,0,0,3.13,16.87,49.27,49.27,0,0,1,9-.85,40.44,40.44,0,0,1,16,3.16,44.61,44.61,0,0,1,15.27,10.86,44,44,0,0,1,3.75,4.61c.39.57.68,1,.85,1.28l.17.27,0,0,3.75-2.17-3.78,2.13,0,0,3.75-2.17-3.78,2.13a8.58,8.58,0,0,0,15-8.42Z"/><path class="cls-5" d="M560,642.23l-4.74-1.2,4.73,1.22v0l-4.74-1.2,4.73,1.22s.07-.26.23-.79c1.15-4,7.1-22.26,22.29-42.47s39.47-42.38,77.94-54.93a8.58,8.58,0,0,0-5.32-16.32,177.84,177.84,0,0,0-55.84,29.64,171.45,171.45,0,0,0-44.47,53.15c-8.4,15.64-11.32,27-11.45,27.47A8.58,8.58,0,0,0,560,642.24Z"/><path class="cls-6" d="M680.83,529s22.4-10.78,47.9-7.29"/><path class="cls-5" d="M684.55,536.75,682.28,532l2.25,4.73h0L682.28,532l2.25,4.73.16-.07a88,88,0,0,1,33.63-7.08,67.9,67.9,0,0,1,9.25.62,8.58,8.58,0,1,0,2.33-17,84.38,84.38,0,0,0-11.58-.78,103.86,103.86,0,0,0-29,4.35,88.46,88.46,0,0,0-12.2,4.49,8.58,8.58,0,1,0,7.44,15.46Z"/><path class="cls-8" d="M421.06,813.75h0c-118.47,0-214.5-96-214.5-214.5h0a34.31,34.31,0,0,1,34.32-34.32H601.24a34.32,34.32,0,0,1,34.32,34.32h0C635.56,717.71,539.52,813.75,421.06,813.75Z"/><path class="cls-5" d="M421.06,813.75v-8.58A205.91,205.91,0,0,1,215.14,599.25h0a25.74,25.74,0,0,1,25.74-25.74H601.24A25.74,25.74,0,0,1,627,599.25h0A205.91,205.91,0,0,1,421.06,805.17v17.16A223.08,223.08,0,0,0,644.14,599.25h0a42.9,42.9,0,0,0-42.9-42.9H240.88a42.88,42.88,0,0,0-42.9,42.9h0A223.08,223.08,0,0,0,421.06,822.33Z"/><path class="cls-9" d="M308.42,621.66H534.53c11,0,18.55,8.61,14.26,16.39-14.64,26.56-51.55,76.06-123.31,76.06-76.62,0-117.29-49-131.42-76.25C290,630.09,297.51,621.66,308.42,621.66Z"/><path class="cls-10" d="M308.42,621.66v8.58H534.53a9.37,9.37,0,0,1,5.76,1.73,3.78,3.78,0,0,1,1,1.11,1.07,1.07,0,0,1,.14.39.92.92,0,0,1-.16.44c-6.93,12.59-19.23,30.67-38,45.38A121.88,121.88,0,0,1,470,697.91a128.12,128.12,0,0,1-44.52,7.62c-36.46,0-63.83-11.55-84.09-26.26s-33.22-32.81-39.71-45.36c-.16-.32-.14-.38-.14-.43a.78.78,0,0,1,.13-.41,4.94,4.94,0,0,1,2-1.75,10.3,10.3,0,0,1,4.76-1.08V613.08a26.43,26.43,0,0,0-16.37,5.4,21,21,0,0,0-5.47,6.44,17.79,17.79,0,0,0-.13,16.9c7.63,14.69,22,34.7,44.84,51.32s54,29.58,94.19,29.55A145.68,145.68,0,0,0,475.92,714a142.65,142.65,0,0,0,52.45-34.21,172.81,172.81,0,0,0,27.93-37.62,17.72,17.72,0,0,0,.08-17.28,21.7,21.7,0,0,0-9-8.73,27.23,27.23,0,0,0-12.82-3.1H308.42Z"/></svg>